<?xml version="1.0" encoding="UTF-8"?>
<svg width="24px" height="24px" viewBox="0 0 24 24" version="1.1" xmlns="http://www.w3.org/2000/svg" xmlns:xlink="http://www.w3.org/1999/xlink">
    <title>Icons/辅助/通过</title>
    <g id="Icons/辅助/通过" stroke="none" stroke-width="1" fill="none" fill-rule="evenodd">
        <g id="编组">
            <rect id="矩形" fill="#000000" opacity="0" x="0" y="0" width="24" height="24"></rect>
            <path d="M12,2 C17.5228475,2 22,6.4771525 22,12 C22,17.5228475 17.5228475,22 12,22 C6.4771525,22 2,17.5228475 2,12 C2,6.4771525 6.4771525,2 12,2 Z M17.6568542,8.45367913 C17.2963703,8.09319517 16.7291392,8.06546563 16.336848,8.37049052 L16.2426407,8.45367913 L10.5857864,14.1105334 L7.75735931,11.2821063 C7.36683502,10.891582 6.73367004,10.891582 6.34314575,11.2821063 C5.98266179,11.6425902 5.95493225,12.2098213 6.25995714,12.6021125 L6.34314575,12.6963198 L9.87867966,16.2318537 C10.2391636,16.5923377 10.8063947,16.6200672 11.1986859,16.3150423 L11.2928932,16.2318537 L17.6568542,9.86789269 C18.0473785,9.4773684 18.0473785,8.84420342 17.6568542,8.45367913 Z" id="形状" fill="#05B37C"></path>
        </g>
    </g>
</svg>