<?xml version="1.0" encoding="UTF-8"?>
<svg width="24px" height="24px" viewBox="0 0 24 24" version="1.1" xmlns="http://www.w3.org/2000/svg" xmlns:xlink="http://www.w3.org/1999/xlink">
    <title>Icons/辅助/失败</title>
    <g id="Icons/辅助/失败" stroke="none" stroke-width="1" fill="none" fill-rule="evenodd">
        <g id="编组">
            <rect id="矩形" fill="#000000" opacity="0" x="0" y="0" width="24" height="24"></rect>
            <path d="M12,2 C17.5228475,2 22,6.4771525 22,12 C22,17.5228475 17.5228475,22 12,22 C6.4771525,22 2,17.5228475 2,12 C2,6.4771525 6.4771525,2 12,2 Z M14.7388712,7.85642964 L14.6516504,7.93413601 L12,10.586 L9.34834957,7.93413601 L9.26112876,7.85642964 C8.8686111,7.54560419 8.29676571,7.57150631 7.93413601,7.93413601 C7.57150631,8.29676571 7.54560419,8.8686111 7.85642964,9.26112876 L7.93413601,9.34834957 L10.586,12 L7.93413601,14.6516504 L7.85642964,14.7388712 C7.54560419,15.1313889 7.57150631,15.7032343 7.93413601,16.065864 C8.29676571,16.4284937 8.8686111,16.4543958 9.26112876,16.1435704 L9.34834957,16.065864 L12,13.414 L14.6516504,16.065864 L14.7388712,16.1435704 C15.1313889,16.4543958 15.7032343,16.4284937 16.065864,16.065864 C16.4284937,15.7032343 16.4543958,15.1313889 16.1435704,14.7388712 L16.065864,14.6516504 L13.414,12 L16.065864,9.34834957 L16.1435704,9.26112876 C16.4543958,8.8686111 16.4284937,8.29676571 16.065864,7.93413601 C15.7032343,7.57150631 15.1313889,7.54560419 14.7388712,7.85642964 Z" id="形状" fill="#ED3F49"></path>
            <g id="编组-2" transform="translate(7.000000, 7.000000)"></g>
        </g>
    </g>
</svg>