<?xml version="1.0" encoding="UTF-8"?>
<svg width="24px" height="24px" viewBox="0 0 24 24" version="1.1" xmlns="http://www.w3.org/2000/svg" xmlns:xlink="http://www.w3.org/1999/xlink">
    <title>Icons/辅助/Attention-严重</title>
    <g id="Icons/辅助/Attention-严重" stroke="none" stroke-width="1" fill="none" fill-rule="evenodd">
        <g id="编组">
            <rect id="矩形" fill="#000000" opacity="0" x="0" y="0" width="24" height="24"></rect>
            <path d="M12,2 C17.5228475,2 22,6.4771525 22,12 C22,17.5228475 17.5228475,22 12,22 C6.4771525,22 2,17.5228475 2,12 C2,6.4771525 6.4771525,2 12,2 Z M12,15.3125 C11.3096441,15.3125 10.75,15.8721441 10.75,16.5625 C10.75,17.2528559 11.3096441,17.8125 12,17.8125 C12.6903559,17.8125 13.25,17.2528559 13.25,16.5625 C13.25,15.8721441 12.6903559,15.3125 12,15.3125 Z M12,6.1875 C11.4871642,6.1875 11.0644928,6.57354019 11.0067277,7.07087887 L11,7.1875 L11,12.6875 L11.0067277,12.8041211 C11.0644928,13.3014598 11.4871642,13.6875 12,13.6875 C12.5128358,13.6875 12.9355072,13.3014598 12.9932723,12.8041211 L13,12.6875 L13,7.1875 L12.9932723,7.07087887 C12.9355072,6.57354019 12.5128358,6.1875 12,6.1875 Z" id="形状" fill="#ED3F49"></path>
        </g>
    </g>
</svg>