<?xml version="1.0" encoding="UTF-8"?>
<svg width="24px" height="24px" viewBox="0 0 24 24" version="1.1" xmlns="http://www.w3.org/2000/svg" xmlns:xlink="http://www.w3.org/1999/xlink">
    <title>Icons/辅助/info 操作</title>
    <g id="Icons/辅助/info-操作" stroke="none" stroke-width="1" fill="none" fill-rule="evenodd">
        <g id="编组">
            <rect id="矩形" fill="#000000" opacity="0" x="0" y="0" width="24" height="24"></rect>
            <path d="M12,2 C17.5228475,2 22,6.4771525 22,12 C22,17.5228475 17.5228475,22 12,22 C6.4771525,22 2,17.5228475 2,12 C2,6.4771525 6.4771525,2 12,2 Z M12,10.3125 C11.5266131,10.3125 11.1300527,10.6414337 11.0264107,11.0832092 L11.0067277,11.1958789 L11,11.3125 L11,16.8125 L11.0067277,16.9291211 C11.0644928,17.4264598 11.4871642,17.8125 12,17.8125 C12.4733869,17.8125 12.8699473,17.4835663 12.9735893,17.0417908 L12.9932723,16.9291211 L13,16.8125 L13,11.3125 L12.9932723,11.1958789 C12.9355072,10.6985402 12.5128358,10.3125 12,10.3125 Z M12,6.1875 C11.3096441,6.1875 10.75,6.74714406 10.75,7.4375 C10.75,8.12785594 11.3096441,8.6875 12,8.6875 C12.6903559,8.6875 13.25,8.12785594 13.25,7.4375 C13.25,6.74714406 12.6903559,6.1875 12,6.1875 Z" id="形状" fill="#00B5F2"></path>
        </g>
    </g>
</svg>