<?xml version="1.0" encoding="UTF-8"?>
<svg width="24px" height="24px" viewBox="0 0 24 24" version="1.1" xmlns="http://www.w3.org/2000/svg" xmlns:xlink="http://www.w3.org/1999/xlink">
    <title>Icons/辅助/Attention-普通</title>
    <g id="Icons/辅助/Attention-普通" stroke="none" stroke-width="1" fill="none" fill-rule="evenodd">
        <g id="编组">
            <rect id="矩形" fill="#000000" opacity="0" x="0" y="0" width="24" height="24"></rect>
            <path d="M12.7717436,2.62923656 C12.982868,2.7559112 13.1595647,2.93260791 13.2862394,3.14373231 L22.6369538,18.7282564 C23.0631761,19.4386268 22.8328285,20.3600171 22.1224581,20.7862394 C21.889335,20.9261132 21.6225804,21 21.3507144,21 L2.64928557,21 C1.82085844,21 1.14928557,20.3284271 1.14928557,19.5 C1.14928557,19.2281341 1.22317232,18.9613795 1.36304618,18.7282564 L10.7137606,3.14373231 C11.1399829,2.43336192 12.0613732,2.20301432 12.7717436,2.62923656 Z M12,16.3156424 C11.3096441,16.3156424 10.75,16.8752865 10.75,17.5656424 C10.75,18.2559984 11.3096441,18.8156424 12,18.8156424 C12.6903559,18.8156424 13.25,18.2559984 13.25,17.5656424 C13.25,16.8752865 12.6903559,16.3156424 12,16.3156424 Z M12,7.19564245 C11.4871642,7.19564245 11.0644928,7.58168264 11.0067277,8.07902132 L11,8.19564245 L11,13.6956424 L11.0067277,13.8122636 C11.0644928,14.3096023 11.4871642,14.6956424 12,14.6956424 C12.5128358,14.6956424 12.9355072,14.3096023 12.9932723,13.8122636 L13,13.6956424 L13,8.19564245 L12.9932723,8.07902132 C12.9355072,7.58168264 12.5128358,7.19564245 12,7.19564245 Z" id="形状" fill="#FFC633"></path>
        </g>
    </g>
</svg>